<?xml version="1.0" encoding="UTF-8"?>
<svg id="Camada_1" xmlns="http://www.w3.org/2000/svg" viewBox="80 215 515 650">
    <defs>
        <style>
            .cls-1{fill:#a78c13;}.cls-1,.cls-2,.cls-3,.cls-4,.cls-5,.cls-6,.cls-7,.cls-8,.cls-9,.cls-10,.cls-11{stroke-width:0px;}.cls-2{fill:#c2b00a;}.cls-3{fill:#010101;}.cls-5{fill:#5c521c;}.cls-6{fill:none;}.cls-7{fill:#dab807;}.cls-8{fill:#e2c842;}.cls-9{fill:#1d1d1b;}.cls-10{fill:#f7e64f;}.cls-11{fill:#766b1d;}</style>
    </defs>
    <path class="cls-6"
        d="m303.7,384.82c-2.57-.71-4.48-2.87-4.84-5.49l-3.82-28.22h-.02s-.65-4.35-.65-4.35l-37.19,3.74-24.4,86.95,78.5-7.91,11.12-39.61-4.32-.93.15-.67-14.32-3.46c-.07,0-.14-.03-.21-.05Zm-38.46,28.6c-3.21,1.79-7.29.67-9.11-2.5-1.81-3.18-.68-7.22,2.53-9.02,3.21-1.79,7.29-.67,9.11,2.5,1.81,3.18.68,7.22-2.53,9.02Zm22.35-17.89c-3.21,1.8-7.29.68-9.1-2.5-1.82-3.18-.69-7.2,2.53-9.01,3.22-1.8,7.29-.68,9.1,2.5,1.82,3.19.69,7.22-2.53,9.01Z" />
    <path class="cls-6"
        d="m181.17,300.11l-24.4,86.93,63.13,46.86,24.4-86.95-63.14-46.85Zm12.89,45.68c-3.21,1.8-7.29.68-9.1-2.5-1.81-3.19-.68-7.22,2.53-9.01,3.21-1.8,7.29-.68,9.1,2.5,1.82,3.17.68,7.2-2.53,9.01Zm19.72,53.28c-3.22,1.8-7.29.68-9.1-2.5-1.82-3.18-.69-7.22,2.53-9.01,3.21-1.8,7.29-.68,9.1,2.5,1.82,3.18.69,7.22-2.53,9.01Z" />
    <path class="cls-6"
        d="m292.41,331.72l-3.9-28.8-.23.03-.26-1.72-19.83-14.71-73.15,7.36,58.84,43.66,38.54-3.87-.28-1.9.27-.04Zm-27.84-14.79c-3.22,1.8-7.29.68-9.11-2.5-1.81-3.18-.68-7.22,2.53-9.01,3.21-1.8,7.29-.68,9.11,2.5,1.81,3.18.68,7.22-2.53,9.01Z" />
    <path class="cls-4"
        d="m587.56,425.88v289.76l-250.93,144.87-250.93-144.87v-289.76l57.5-33.19c.45.87,1.1,1.63,1.91,2.24l11.9,8.82-54.82,31.64v270.73l234.45,135.36,234.45-135.36v-270.73l-109.7-63.33,11.84-12.63,114.34,66.45Z" />
    <polygon class="cls-11"
        points="571.07 435.38 571.07 706.11 336.63 841.48 102.18 706.11 102.18 435.38 157 403.74 174.94 417.06 124.74 446.04 122.68 447.23 122.68 664.5 122.68 694.27 134.47 701.09 159.03 715.26 225.58 753.68 225.58 753.69 322.56 809.67 336.63 817.79 385.18 789.77 438.28 759.1 504.11 721.1 548.51 695.47 550.58 694.27 550.58 447.23 446.96 387.41 461.37 372.05 571.07 435.38" />
    <polygon class="cls-3" points="542.13 577.58 542.33 577.55 542.33 579.55 542.13 577.58" />
    <polygon class="cls-3" points="542.33 587.06 541.92 585.22 542.33 585.12 542.33 587.06" />
    <path class="cls-8"
        d="m144.73,631.73c21.32,0,42.01,2.82,61.7,8.09,50.3,13.46,94.09,43.02,125.54,82.76,1.98,2.5,3.9,5.04,5.77,7.62,1.88-2.58,3.81-5.12,5.78-7.62,28.49-36.02,67.14-63.66,111.58-78.56,23.78-7.98,49.22-12.3,75.66-12.3,3.87,0,7.73.12,11.57.33v32c-3.83-.18-7.69-.29-11.57-.29-78.83,0-146.66,35.06-193.03,92.58-45.46-56.42-115.09-92.58-193.01-92.58-4.63,0-9.23.14-13.81.38v-32.01c4.56-.27,9.16-.41,13.81-.41Z" />
    <path class="cls-3"
        d="m144.73,663.77c77.92,0,147.55,36.16,193.01,92.58,46.37-57.52,114.19-92.58,193.03-92.58,3.87,0,7.73.11,11.57.29v9.18c-3.83-.19-7.69-.3-11.57-.3-75.82,0-143.5,35.54-187.24,90.85-1.98,2.5-3.9,5.04-5.78,7.62-1.87-2.58-3.79-5.12-5.77-7.62-43.74-55.31-111.42-90.85-187.24-90.85-4.63,0-9.25.14-13.81.41v-9.19c4.57-.25,9.18-.38,13.81-.38Z" />
    <path class="cls-8"
        d="m331.97,763.79c1.98,2.5,3.9,5.04,5.77,7.62,1.88-2.58,3.81-5.12,5.78-7.62,43.74-55.31,111.42-90.85,187.24-90.85,3.87,0,7.73.11,11.57.3v15.26c-3.83-.19-7.69-.29-11.57-.29-64.54,0-123.38,24.81-167.53,65.37-2.34,2.16-4.63,4.34-6.88,6.58-6.58,6.53-12.79,13.42-18.62,20.64-5.81-7.21-12.02-14.11-18.6-20.64-2.25-2.24-4.55-4.42-6.88-6.58-44.16-40.56-103-65.37-167.53-65.37-4.57,0-9.12.15-13.64.4.37.56.74,1.11,1.11,1.65l-1.28-.74v-16.17c4.56-.27,9.18-.41,13.81-.41,75.82,0,143.5,35.54,187.24,90.85Z" />
    <path class="cls-3"
        d="m319.14,760.16c6.58,6.53,12.79,13.42,18.6,20.64,5.83-7.21,12.03-14.11,18.62-20.64,2.25-2.24,4.55-4.42,6.88-6.58,44.14-40.56,102.98-65.37,167.53-65.37,3.87,0,7.73.1,11.57.29v1.02l-13.66,7.89c-62.24.54-118.85,25.02-161.1,64.65-2.35,2.21-4.66,4.46-6.92,6.77-6.04,6.15-11.77,12.63-17.13,19.4-.99,1.25-1.96,2.51-2.93,3.78-.96,1.28-1.91,2.56-2.86,3.85-.89-1.24-1.81-2.47-2.73-3.7-.99-1.32-2.01-2.62-3.04-3.93-5.36-6.77-11.09-13.24-17.15-19.4-2.25-2.31-4.56-4.56-6.91-6.77-42.71-40.08-100.13-64.67-163.19-64.67h-.16l-12.36-7.13c-.37-.54-.74-1.09-1.11-1.65,4.52-.25,9.07-.4,13.64-.4,64.53,0,123.37,24.81,167.53,65.37,2.34,2.16,4.63,4.34,6.88,6.58Z" />
    <path class="cls-5"
        d="m510.29,433.5l-118.25,107.27c-2.45-1.35-4.95-2.61-7.49-3.76l1.77.77,61.56-140.3,62.4,36.02Z" />
    <polygon class="cls-2"
        points="465.34 331.25 467.28 348.86 459.15 357.53 412.41 386.01 408.59 388.26 447.59 291.38 448.02 290.32 449.02 287.94 465.34 331.25" />
    <path class="cls-3"
        d="m471.68,358.53l1.54.89-11.84,12.63-3.72-2.14c1.65-.8,3.23-1.73,4.79-2.68,1.36-.82,2.38-2.13,2.94-3.61,3.04-1.17,3.1-4.34,6.29-5.08Z" />
    <polygon class="cls-1" points="458.84 271.77 463.98 318.69 451.04 284.38 458.84 271.77" />
    <path class="cls-1"
        d="m457.95,263.58l.33,3.08-9.49,15.37c-.54.1-.99.43-1.2.93l-.23.58-77.07-48.58,5.32,1.5,82.35,27.12Z" />
    <path class="cls-8"
        d="m465.77,631.25c-4.07,1.1-8.11,2.28-12.09,3.59-.19-2.12-.44-4.2-.73-6.29l12.82,2.71Z" />
    <polygon class="cls-1"
        points="449.83 367.43 405.11 415.06 407.64 392.56 414.03 388.67 449.83 367.43" />
    <path class="cls-5"
        d="m542.33,589.16v33.73c-3.83-.19-7.69-.32-11.57-.32-19.22,0-37.93,2.23-55.9,6.39l-22.61-4.77c-.88-4.96-2.06-9.81-3.53-14.52l93.61-20.51Z" />
    <polygon class="cls-10"
        points="445.35 288.53 444.68 290.21 403.46 387.67 339.87 316.78 334.95 311.16 445.35 288.53" />
    <path class="cls-8"
        d="m447.43,605.74c-1.62-4.64-3.53-9.15-5.7-13.5l100.61-10.61v3.49l-.41.1-.04-.18-94.04,20.61-.41.1Z" />
    <polygon class="cls-2" points="442.96 285.35 332.35 308.15 363.77 234.69 442.96 285.35" />
    <path class="cls-7"
        d="m335.75,534.75c36.56,0,68.98,17.91,89.01,45.41,3.08,4.23,5.87,8.7,8.33,13.35,7.06,13.34,11.47,28.3,12.49,44.16-42.64,15.65-79.82,42.73-107.83,77.48-28.86-35.82-67.46-63.47-111.73-78.89.7-9.01,2.49-17.72,5.23-26.01,4.19-12.64,10.61-24.26,18.79-34.41,13.9-17.24,32.89-30.22,54.67-36.63,7.6-2.25,15.54-3.68,23.73-4.22,2.42-.16,4.85-.25,7.31-.25h.01Z" />
    <path class="cls-5"
        d="m442.08,394.13l-79.33,135.45c-1.2-.27-2.39-.54-3.59-.78l11.71-112.34,33.92,15.85,36.35-38.73.93.55Z" />
    <path class="cls-5"
        d="m542.33,577.55l-.21.03h-.01v-.07l-100.81,10.63-1.62.16c-1.99-3.65-4.18-7.2-6.54-10.61l109.19-64.23v64.08Z" />
    <path class="cls-8" d="m421.98,563.88l105.4-46.39-96.66,56.85c-2.72-3.65-5.63-7.14-8.74-10.45Z" />
    <polygon class="cls-3"
        points="414.03 388.67 407.64 392.56 405.11 415.06 401.54 414.8 403.05 393.99 399.63 393.55 400.03 390.46 337.51 318.84 339.87 316.78 403.46 387.67 444.68 290.21 447.59 291.38 408.59 388.26 412.41 386.01 414.03 388.67" />
    <path class="cls-5"
        d="m411.52,554.02l105.63-116.56,25.18,14.54v54.4l-123.43,54.34c-2.36-2.35-4.84-4.59-7.39-6.72Z" />
    <polygon class="cls-1"
        points="403.05 393.99 401.54 414.8 401.32 417.92 330.27 384.72 399.63 393.55 403.05 393.99" />
    <polygon class="cls-2"
        points="337.51 318.84 400.03 390.46 321.03 380.4 309.58 375.04 309.03 372.46 317.45 347.64 330.79 311.35 337.49 318.83 337.51 318.84" />
    <path class="cls-8"
        d="m408.31,551.42c-3.97-3.09-8.15-5.95-12.49-8.5l113.58-103.04-101.09,111.54Z" />
    <path class="cls-8" d="m384.45,536.95l-1.9-.82h0c.63.26,1.26.54,1.9.82Z" />
    <path class="cls-3" d="m449.36,743.19l-80.11,46.24c23.34-20.1,50.45-35.91,80.11-46.24Z" />
    <path class="cls-3"
        d="m369.41,410.83l-2.06-.22-.43,3.98-3.72-1.74.88-4.2c1.74.78,3.54,1.46,5.33,2.18Z" />
    <path class="cls-8"
        d="m366.91,530.63l72.02-122.96-56.37,128.44c-5.04-2.18-10.26-4.01-15.65-5.48Z" />
    <path class="cls-5"
        d="m359.35,411.07l-24.08,115.38c-1.72.01-3.43.07-5.14.15l-16.99-83.94,4.04-.41c2.75-.27,5.03-2.17,5.77-4.79l10.77-38.37,25.64,11.99Z" />
    <polygon class="cls-1"
        points="356.18 238.98 329.14 306.08 301 295.87 293.39 292.81 356.18 238.98" />
    <path class="cls-8"
        d="m351.13,799.89c34.21-39.09,80.92-66.93,133.84-77.26l-35.61,20.57c-29.66,10.33-56.77,26.14-80.11,46.24l-18.12,10.45Z" />
    <path class="cls-8"
        d="m354.94,528.02c-5.06-.82-10.22-1.33-15.48-1.48l23.74-113.69,3.72,1.74-.14,1.42-11.84,112.01Z" />
    <path class="cls-8"
        d="m367.58,762.06c42.25-39.64,98.86-64.12,161.1-64.65l-22.16,12.79c-64.69,6.32-122.15,37.6-162.64,84.07-1.04,1.2-2.07,2.42-3.1,3.64l-3.04-2.05c.95-1.29,1.9-2.57,2.86-3.85.96-1.26,1.94-2.53,2.93-3.78,5.36-6.77,11.09-13.24,17.13-19.4,2.27-2.31,4.57-4.56,6.92-6.77Z" />
    <path class="cls-8"
        d="m337.74,795.85l3.04,2.05c-1.02,1.22-2.03,2.45-3.04,3.7-1.94-2.39-3.9-4.75-5.92-7.08l3.19-2.36c.92,1.22,1.84,2.46,2.73,3.7Z" />
    <polygon class="cls-1"
        points="327 309.69 308.41 364.51 307.75 366.32 293.1 296.31 299.88 298.77 327 309.69" />
    <path class="cls-8"
        d="m309.01,443.06l16.98,83.82c-5.22.41-10.35,1.18-15.35,2.27l-8.67-85.37,7.03-.71Z" />
    <polygon class="cls-2"
        points="321.45 393.34 311.28 429.53 232.78 437.44 257.19 350.49 291.87 347 299.41 383.04 321.45 393.34" />
    <path class="cls-5"
        d="m297.87,444.19l8.74,85.91c-.91.22-1.81.47-2.71.71l-48.47-82.35,42.44-4.27Z" />
    <path class="cls-8"
        d="m299.84,532.03c-5.39,1.7-10.58,3.81-15.59,6.24l-39.57-88.72,6.25-.63,48.91,83.12Z" />
    <polygon class="cls-1"
        points="281.23 296.19 289.15 333.99 253.88 337.54 195.05 293.88 268.21 286.51 281.23 296.19" />
    <path class="cls-5"
        d="m240.35,449.97l40.21,90.15c-1.59.85-3.15,1.72-4.7,2.62l-117.57-106.56,23.86-13.78,37.56,27.88c.67.49,1.43.87,2.23,1.09s1.62.29,2.46.21l15.95-1.61Z" />
    <path class="cls-8"
        d="m157.66,441.17l114.55,103.84c-4.31,2.75-8.44,5.77-12.35,9.05l-102.2-112.89Z" />
    <path class="cls-5"
        d="m151.25,440.26l105.48,116.5c-1.48,1.33-2.94,2.71-4.36,4.11l-121.46-51.53v-57.34l20.33-11.73Z" />
    <path class="cls-3"
        d="m250.93,448.92l-6.25.63-1.63-3.67c.91.14,1.81.29,2.72.48,1.76.38,3.57.12,5.08-.66l-1.35.8,1.43,2.42Z" />
    <polygon class="cls-10"
        points="244.3 346.96 219.91 433.9 156.78 387.04 181.18 300.12 244.3 346.96" />
    <path class="cls-8"
        d="m243.82,570.31c-1.77,2.14-3.43,4.37-5.03,6.64l-.12-.07.1-.15-101.82-60.35,112.34,47.66c-1.46,1.55-2.86,3.15-4.23,4.77-.43.49-.84,1-1.24,1.51Z" />
    <path class="cls-3" d="m238.67,576.88l.12.07c-.36.51-.71,1.03-1.07,1.55l.95-1.62Z" />
    <path class="cls-3"
        d="m157.66,441.17l102.2,112.89c3.92-3.28,8.04-6.31,12.35-9.05l-114.55-103.84Zm-26.73,68.17l121.46,51.53c1.42-1.4,2.87-2.78,4.36-4.11l-105.48-116.5-20.33,11.73v57.34Zm72.91,120.39c4.73,1.15,9.41,2.43,14.04,3.86.16-1.84.4-3.67.66-5.48l-14.7,1.62Zm237.47-41.59l100.81-10.56h.01l.21,1.98v-66.08l-109.19,64.23c2.36,3.41,4.55,6.95,6.54,10.61l1.62-.16Zm101.03-1.09v-5.43l-100.61,10.61c2.17,4.36,4.08,8.86,5.7,13.5l.41-.1,94.08-20.43.41,1.84Zm-411.41-.27l93.08,18.9c1.58-4.51,3.43-8.88,5.52-13.11l-98.6-10.06v4.26Zm1.28,103.48l12.36,7.13,21.89,12.64,20.77,11.99,33.62,19.41,45.74,26.39,43.91,25.35,16.06,9.27,9.22,5.33.87.49,14.51-8.38,18.12-10.45,80.11-46.24,35.61-20.57,21.54-12.43,22.16-12.79,13.66-7.89v-57.45c-3.83-.21-7.69-.33-11.57-.33-26.43,0-51.88,4.31-75.66,12.3-44.44,14.89-83.09,42.53-111.58,78.56-1.98,2.5-3.9,5.04-5.78,7.62-1.87-2.58-3.79-5.12-5.77-7.62-31.45-39.75-75.25-69.3-125.54-82.76-19.69-5.28-40.38-8.09-61.7-8.09-4.64,0-9.25.14-13.81.41v57.37l1.28.74Zm123.23-241.8l48.47,82.35c.89-.25,1.8-.49,2.71-.71l-8.74-85.91-42.44,4.27Zm197.52,180.08c.29,2.09.54,4.18.73,6.29,3.98-1.31,8.02-2.49,12.09-3.59l-12.82-2.71Zm11.03-309.86l-5.14-46.92-7.8,12.61,12.94,34.3Zm-15.26,290.98c1.47,4.71,2.65,9.56,3.53,14.52l22.61,4.77c17.97-4.16,36.68-6.39,55.9-6.39,3.87,0,7.73.12,11.57.32v-33.73l-93.61,20.51Zm-164.48-71.4c5.01-2.43,10.21-4.53,15.59-6.24l-48.91-83.12-1.43-2.42,1.35-.8c-1.51.78-3.32,1.04-5.08.66-.91-.19-1.81-.34-2.72-.48l1.63,3.67,39.57,88.72Zm16.76-242.4l28.14,10.21,27.04-67.1-62.78,53.83,7.61,3.06Zm-20.44,244.26l-40.21-90.15-15.95,1.61c-.84.08-1.66.01-2.46-.21s-1.55-.59-2.23-1.09l-37.56-27.88-23.86,13.78,117.57,106.56c1.55-.91,3.1-1.77,4.7-2.62Zm45.43-13.24l-16.98-83.82-7.03.71,8.67,85.37c5-1.09,10.13-1.85,15.35-2.27Zm66.05,13.89l118.25-107.27-62.4-36.02-61.56,140.3-1.77-.77c2.54,1.15,5.04,2.42,7.49,3.76Zm-78.91-98.12l16.99,83.94c1.7-.08,3.42-.14,5.14-.15l24.08-115.38-25.64-11.99-10.77,38.37c-.74,2.62-3.02,4.52-5.77,4.79l-4.04.41Zm57.74-26.2l-11.71,112.34c1.2.25,2.39.51,3.59.78l79.33-135.45-.93-.55-36.35,38.73-33.92-15.85Zm-4.09-.44l.15-1.42h-.01l.43-3.98,2.06.22c-1.79-.73-3.59-1.4-5.33-2.18l-.88,4.2-23.74,113.69c5.26.15,10.43.66,15.48,1.48l11.84-112.01Zm44.73,138c2.56,2.13,5.03,4.37,7.39,6.72l123.43-54.34v-54.4l-25.18-14.54-105.63,116.56Zm-27.06-17.06c-.63-.29-1.26-.56-1.9-.84l56.37-128.44-72.02,122.96c5.39,1.47,10.61,3.3,15.65,5.48h0s1.9.84,1.9.84Zm-253.53,41.44l100.63,10.26c1.55-2.89,3.23-5.7,5.03-8.44l-105.66-62.63v60.81Zm291.06-14.51c3.1,3.31,6.02,6.8,8.74,10.45l96.66-56.85-105.4,46.39Zm-51.7-328.91l77.07,48.58.23-.58c.21-.51.66-.84,1.2-.93l9.49-15.37-.33-3.08-82.35-27.12-5.32-1.5Zm-225.56,387.6c15.88,0,31.41,1.52,46.46,4.4l28.01-3.08c.88-4.88,2.03-9.63,3.49-14.27l-91.77-18.63v31.98c4.57-.26,9.18-.4,13.81-.4Zm93-44.07c.36-.52.71-1.04,1.07-1.55h.01c1.59-2.27,3.27-4.48,5.01-6.64.41-.51.82-1.02,1.24-1.51,1.37-1.62,2.78-3.21,4.23-4.77l-112.34-47.66,101.72,60.5-.95,1.62Zm158.1-35.58c4.34,2.56,8.52,5.41,12.49,8.5l101.09-111.54-113.58,103.04Zm-63.47-234.76l110.61-22.81-79.19-50.65-31.42,73.46Zm5.14,10.67l-6.7-7.47-13.34,36.28-8.42,24.83.55,2.58,11.46,5.36,79,10.06-.4,3.09-69.37-8.83,71.06,33.21.22-3.12,3.57.26,44.72-47.63-35.8,21.24-1.62-2.67,46.74-28.48,8.13-8.67-1.94-17.61-16.32-43.3-1,2.38-.43,1.06-2.91-1.17.67-1.68-110.4,22.63,4.92,5.62-2.36,2.06h-.01Zm-37.62-20.06l-6.77-2.46,14.65,70.01.66-1.81,18.59-54.82-27.12-10.92Zm250.7,148.46v247.04l-2.06,1.2-44.4,25.64-65.83,38-53.1,30.66-48.55,28.03-14.07-8.12-96.98-55.98h0s-66.55-38.43-66.55-38.43l-24.56-14.18-11.79-6.81v-247.04l2.06-1.18,50.2-28.99-17.94-13.31,6.94-4c-3.19-2.5-6.39-4.99-9.12-8.01-.71-.78-1.24-1.69-1.57-2.65-.37-.25-.7-.51-1.02-.85-.16-.16-.34-.33-.48-.49l-8.56,4.95c-.77-1.44-.98-3.17-.52-4.82l28.25-100.62c.74-2.62,3.02-4.53,5.76-4.81l92.79-9.34c1.66-.16,3.32.3,4.67,1.29l12.01,9.41,74.98-64.3,107.54,35.5,10.7,97.87-6.15,6.55-1.54-.89c-3.19.74-3.26,3.92-6.29,5.08-.56,1.48-1.58,2.79-2.94,3.61-1.57.95-3.15,1.88-4.79,2.68l3.72,2.14-14.41,15.36,103.62,59.82Zm-105,190.44c-1.02-15.85-5.43-30.82-12.49-44.16-2.46-4.66-5.25-9.12-8.33-13.35-20.03-27.49-52.45-45.41-89.01-45.41h-.01c-2.46,0-4.89.08-7.31.25-8.19.54-16.13,1.96-23.73,4.22-21.78,6.4-40.76,19.38-54.67,36.63-8.19,10.15-14.6,21.78-18.79,34.41-2.75,8.28-4.53,16.99-5.23,26.01,44.28,15.41,82.87,43.07,111.73,78.89,28.01-34.76,65.19-61.84,107.83-77.48Zm-134.29-208.14l10.17-36.19-22.04-10.3-7.54-36.04-34.68,3.49-24.41,86.95,78.5-7.91Zm-22.13-95.54l-7.91-37.81-13.02-9.67-73.16,7.36,58.83,43.66,35.27-3.54Zm-69.24,99.91l24.4-86.94-63.13-46.85-24.4,86.92,63.13,46.86Z" />
    <path class="cls-5"
        d="m236.58,580.21c-1.8,2.73-3.48,5.55-5.03,8.44l-100.63-10.26v-60.81l105.66,62.63Z" />
    <path class="cls-8"
        d="m130.92,582.52l98.6,10.06c-2.09,4.23-3.94,8.6-5.52,13.11l-93.08-18.9v-4.26Z" />
    <path class="cls-3"
        d="m220.84,741.43c33.56,10.83,64.01,28.64,89.64,51.74l-43.91-25.35-45.74-26.39Z" />
    <path class="cls-8"
        d="m218.53,628.11c-.26,1.81-.49,3.64-.66,5.48-4.63-1.43-9.31-2.71-14.04-3.86l14.7-1.62Z" />
    <path class="cls-8"
        d="m187.22,722.02c55.42,10,104.25,39.18,139.32,80.42l-16.06-9.27c-25.64-23.09-56.08-40.91-89.64-51.74l-33.62-19.41Z" />
    <path class="cls-3"
        d="m166.45,710.03c65.82,5.73,124.36,37.3,165.37,84.49,2.02,2.32,3.98,4.68,5.92,7.08,1-1.25,2.02-2.47,3.04-3.7,1.03-1.22,2.06-2.45,3.1-3.64,40.49-46.46,97.94-77.75,162.64-84.07l-21.54,12.43c-52.92,10.33-99.63,38.18-133.84,77.26l-14.51,8.38-.87-.49-9.22-5.33c-35.07-41.24-83.9-70.42-139.32-80.42l-20.77-11.99Z" />
    <path class="cls-3"
        d="m163.93,399.75l-6.94,4-11.9-8.82c-.81-.6-1.46-1.37-1.91-2.24l8.56-4.95c.14.16.32.33.48.49.32.34.65.6,1.02.85.33.96.85,1.87,1.57,2.65,2.73,3.02,5.94,5.51,9.12,8.01Z" />
    <path class="cls-8"
        d="m144.73,697.39c63.06,0,120.47,24.59,163.19,64.67,2.35,2.21,4.66,4.46,6.91,6.77,6.06,6.15,11.79,12.63,17.15,19.4,1.03,1.31,2.05,2.61,3.04,3.93l-3.19,2.36c-41.01-47.19-99.55-78.76-165.37-84.49l-21.89-12.64h.16Z" />
    <path class="cls-5"
        d="m222.69,609.61c-1.46,4.64-2.61,9.4-3.49,14.27l-28.01,3.08c-15.06-2.87-30.58-4.4-46.46-4.4-4.63,0-9.23.14-13.81.4v-31.98l91.77,18.63Z" />
    <path class="cls-9"
        d="m264.58,316.93c3.21-1.8,4.34-5.83,2.53-9.01-1.82-3.18-5.89-4.3-9.11-2.5-3.21,1.8-4.34,5.83-2.53,9.01,1.82,3.18,5.89,4.3,9.11,2.5Z" />
    <path class="cls-9"
        d="m187.49,334.28c-3.21,1.79-4.34,5.82-2.53,9.01,1.81,3.18,5.89,4.3,9.1,2.5,3.21-1.8,4.34-5.83,2.53-9.01-1.81-3.19-5.89-4.31-9.1-2.5Z" />
    <path class="cls-9"
        d="m207.21,387.55c-3.21,1.79-4.35,5.83-2.53,9.01,1.81,3.19,5.89,4.31,9.1,2.5,3.21-1.79,4.35-5.83,2.53-9.01-1.82-3.18-5.89-4.3-9.1-2.5Z" />
    <path class="cls-9"
        d="m258.66,401.9c-3.21,1.8-4.34,5.83-2.53,9.02,1.82,3.17,5.89,4.3,9.11,2.5,3.21-1.8,4.34-5.83,2.53-9.02-1.82-3.17-5.89-4.3-9.11-2.5Z" />
    <path class="cls-9"
        d="m281.01,384.02c-3.22,1.8-4.35,5.83-2.53,9.01,1.82,3.19,5.89,4.31,9.1,2.5,3.21-1.79,4.34-5.82,2.53-9.01-1.81-3.18-5.89-4.3-9.1-2.5Z" />
    <path class="cls-9"
        d="m393.39,334.02c-.29.06-.57.3-.83.73-.26.43-.56.92-.88,1.46-.32.54-.7,1.05-1.12,1.51-.42.46-.97.76-1.65.9l-10.59,2.1c-.07-.02-.19-.04-.36-.05-.17-.02-.32-.06-.45-.13-.13-.07-.2-.18-.19-.33,0-.15.16-.39.46-.71.46-.52,1.12-1.22,1.98-2.1.86-.88,1.78-1.89,2.77-3.03.99-1.14,1.98-2.37,2.96-3.68.99-1.32,1.84-2.66,2.57-4.03.73-1.37,1.28-2.74,1.65-4.12.37-1.38.43-2.69.18-3.93-.28-1.4-.83-2.6-1.63-3.62-.8-1.01-1.79-1.81-2.94-2.39-1.15-.58-2.44-.94-3.87-1.07-1.43-.13-2.91-.04-4.45.26-.48.1-.94.24-1.36.44-.43.2-.84.4-1.23.59-.4.19-.77.37-1.12.54-.35.17-.67.27-.97.29-.26.02-.54.05-.83.09-.29.04-.61-.04-.95-.23-.38-.22-.7-.18-.95.11s-.48.7-.68,1.2c-.2.5-.36,1.04-.48,1.61-.12.57-.22.99-.29,1.27-.31,1.12-.43,2.09-.37,2.9.06.81.21,1.44.45,1.87.24.43.52.65.83.65.32,0,.59-.25.82-.76.32-.72.63-1.37.94-1.92.3-.56.68-1.04,1.14-1.44.45-.4,1.03-.75,1.72-1.03.69-.29,1.59-.52,2.69-.71.81-.13,1.55-.1,2.22.08.67.18,1.26.47,1.78.86.51.39.93.87,1.24,1.44.31.57.53,1.15.65,1.75.35,1.72.25,3.45-.3,5.22-.55,1.76-1.36,3.52-2.44,5.29-1.08,1.77-2.34,3.55-3.78,5.33-1.44,1.79-2.88,3.59-4.32,5.39-.3.36-.44.72-.43,1.08,0,.36.1.68.27.96.17.28.39.5.64.67.25.17.5.22.76.17l19.41-3.84c1.22-.24,2.1-1.16,2.65-2.76.44-1.31.52-2.63.25-3.97-.16-.79-.67-1.11-1.54-.93Z" />
    <path class="cls-9"
        d="m421.17,319.8v-.05c-.45-2.19-1.11-4.21-1.98-6.05-.87-1.84-1.98-3.39-3.32-4.65-1.34-1.25-2.93-2.15-4.77-2.67-1.84-.53-3.97-.55-6.38-.08-2.41.48-4.37,1.31-5.88,2.5-1.51,1.19-2.64,2.62-3.39,4.29-.75,1.67-1.17,3.52-1.26,5.55-.09,2.03.09,4.15.53,6.34.44,2.19,1.1,4.21,1.97,6.05.87,1.84,1.98,3.39,3.32,4.65,1.34,1.26,2.94,2.15,4.8,2.67,1.86.52,3.99.55,6.4.07,2.41-.48,4.36-1.31,5.86-2.5,1.5-1.19,2.62-2.61,3.37-4.26.75-1.65,1.17-3.5,1.26-5.53.09-2.03-.09-4.15-.53-6.34Zm-6.59,10.38c-.1,1.41-.45,2.63-1.04,3.65-.59,1.03-1.57,1.67-2.91,1.94-1.35.27-2.49.04-3.42-.69-.93-.72-1.72-1.72-2.36-2.98-.64-1.26-1.16-2.66-1.57-4.2-.41-1.54-.76-3.01-1.04-4.4-.28-1.37-.52-2.85-.75-4.44-.22-1.59-.28-3.09-.18-4.5.1-1.41.44-2.62,1.02-3.65.58-1.02,1.54-1.67,2.89-1.94,1.35-.27,2.5-.04,3.44.68.95.72,1.74,1.71,2.38,2.97.64,1.26,1.17,2.67,1.58,4.22.41,1.55.76,3.02,1.04,4.38.28,1.4.53,2.89.75,4.46.22,1.58.28,3.07.18,4.48Z" />
</svg>